PathFileType	4	(X/Y/Z)	C:\Users\Biomechanik\SynologyDrive\AlexP\Athlete_03\Athlete_3_25_03_31\Squat_bw_02\marker_experimental.trc
DataRate	CameraRate	NumFrames	NumMarkers	Units	OrigDataRate	OrigDataStartFrame	OrigNumFrames
200.000000	200.000000	4	55	mm	200.000000	528	604
Frame#	Time	BL			BR			GLAB			RFHD			LFHD			C7			T6			SPINMOL			SPINM2			SPINM3			T12			BELTOL			BELT2			BELT3			SACROL			SACR2			SACR3			LTHOL			LTH2			LTH3			LSHAOL			LSHA2			LSHA3			LHEE			LTOE			LM5			RTHOL			RTH2			RTH3			RSHAOL			RSHA2			RSHA3			RHEE			RTOE			RM5			STRN			XIPH			LACR			LUAOL			LUA2			LUA3			LLAOL			LLA2			LLA3			LWRR			LWRU			RACR			RUAOL			RUA2			RUA3			RLAOL			RLA2			RLA3			RWRR			RWRU			
		X1	Y1	Z1	X2	Y2	Z2	X3	Y3	Z3	X4	Y4	Z4	X5	Y5	Z5	X6	Y6	Z6	X7	Y7	Z7	X8	Y8	Z8	X9	Y9	Z9	X10	Y10	Z10	X11	Y11	Z11	X12	Y12	Z12	X13	Y13	Z13	X14	Y14	Z14	X15	Y15	Z15	X16	Y16	Z16	X17	Y17	Z17	X18	Y18	Z18	X19	Y19	Z19	X20	Y20	Z20	X21	Y21	Z21	X22	Y22	Z22	X23	Y23	Z23	X24	Y24	Z24	X25	Y25	Z25	X26	Y26	Z26	X27	Y27	Z27	X28	Y28	Z28	X29	Y29	Z29	X30	Y30	Z30	X31	Y31	Z31	X32	Y32	Z32	X33	Y33	Z33	X34	Y34	Z34	X35	Y35	Z35	X36	Y36	Z36	X37	Y37	Z37	X38	Y38	Z38	X39	Y39	Z39	X40	Y40	Z40	X41	Y41	Z41	X42	Y42	Z42	X43	Y43	Z43	X44	Y44	Z44	X45	Y45	Z45	X46	Y46	Z46	X47	Y47	Z47	X48	Y48	Z48	X49	Y49	Z49	X50	Y50	Z50	X51	Y51	Z51	X52	Y52	Z52	X53	Y53	Z53	X54	Y54	Z54	X55	Y55	Z55	

529	2.64	960.7051391601562	36.20685958862317	-1933.536376953125	1063.175903320312	32.88704299926757	86.63842010498047	455.3563842773438	1504.374389648438	-1200.020629882812	405.0111999511719	1528.078857421875	-1136.350463867188	409.1883850097656	1524.888061523438	-1271.228515625	218.458984375	1355.982055664062	-1199.355224609375	130.423828125	1214.498046875	-1203.142211914062	119.0066680908203	1185.075439453125	-1225.27392578125	110.8227844238281	1177.234130859375	-1176.374267578125	97.76041412353516	1123.719116210938	-1213.028564453125	81.40657806396484	1066.301391601562	-1213.153198242188	49.06318283081055	1050.223754882812	-1229.098388671875	48.96865463256836	1047.408325195312	-1178.542602539062	22.10173797607422	993.3596191406251	-1207.988159179688	-6.093759536743164	893.1793212890626	-1231.649536132812	-5.202610492706299	890.7374877929689	-1180.1533203125	-17.12995529174805	831.9748535156251	-1208.322021484375	129.4672698974609	632.8895263671876	-1455.565063476562	123.0845031738281	555.2138061523439	-1441.193115234375	156.7098236083984	579.8391113281251	-1469.65380859375	174.5239715576172	330.3928833007814	-1556.011108398438	127.0877456665039	271.0534973144532	-1531.9013671875	172.3366088867188	268.2966613769532	-1554.769287109375	111.9591751098633	69.0591583251954	-1473.343627929688	316.1408081054688	51.37385177612314	-1547.027465820312	239.9845123291016	26.98051452636729	-1626.599243164062	107.1589431762695	632.7009277343751	-966.8038940429688	163.4891815185547	619.33984375	-911.619140625	141.60986328125	586.7815551757814	-942.0174560546875	147.9886322021484	345.5056762695313	-867.4712524414062	166.4609527587891	271.4796752929688	-849.4913330078125	130.3705902099609	286.8724670410157	-879.3690795898438	92.45306396484375	63.8574943542481	-965.1294555664062	285.6231384277344	48.37317657470709	-875.9315795898438	199.9121704101562	38.1631355285645	-801.3967895507812	375.3646240234375	1235.69384765625	-1206.373901367188	363.7314758300781	1087.247802734375	-1204.192504882812	273.6965637207031	1324.518798828125	-1364.808837890625	197.6023559570312	1226.691772460938	-1482.955200195312	157.3732299804688	1177.523315429688	-1501.746337890625	198.4706115722656	1183.176025390625	-1531.69921875	224.7935791015625	1133.501098632812	-1625.376098632812	303.4054565429688	1128.7373046875	-1633.313598632812	274.819580078125	1169.523681640625	-1624.474975585938	344.8170166015625	1246.268310546875	-1617.57763671875	346.3086853027344	1239.897705078125	-1540.057739257812	282.1478881835938	1325.489868164062	-1051.761108398438	213.3358306884766	1231.901733398438	-934.2435302734374	206.2953643798828	1190.972900390625	-882.5254516601561	175.0453796386719	1179.490234375	-922.7666015624999	251.7839660644531	1158.064331054688	-776.5505981445311	255.7524261474609	1236.251708984375	-790.9089355468749	293.3892211914062	1204.882934570312	-779.5747070312499	334.9500427246094	1287.746704101562	-798.7769165039061	337.9867248535156	1279.887939453125	-876.3438110351561	
530	2.645	960.7049560546875	36.20664596557629	-1933.536499023438	1063.175659179688	32.88709640502929	86.63792419433594	453.8069152832031	1509.290405273438	-1199.88427734375	403.4273681640625	1532.940795898438	-1136.205444335938	407.6346435546875	1529.755981445312	-1271.100952148438	217.2578277587891	1360.169311523438	-1199.23388671875	130.0578460693359	1218.078002929688	-1203.04150390625	118.8479309082031	1188.574951171875	-1225.1826171875	110.6958465576172	1180.672729492188	-1176.285766601562	97.98993682861328	1127.080078125	-1212.963256835938	81.96041107177734	1069.649047851562	-1213.122436523438	49.76750946044922	1053.549194335938	-1229.04638671875	49.70420074462891	1050.71875	-1178.493530273438	23.04782485961914	996.5722656250001	-1207.943115234375	-4.799764633178711	896.8372802734376	-1231.637451171875	-3.908932685852051	894.3854980468751	-1180.136108398438	-15.9272928237915	835.6423339843751	-1208.320556640625	128.9664459228516	635.3007202148439	-1454.35009765625	121.7580642700195	557.8081665039064	-1439.376098632812	155.6804656982422	581.8709106445314	-1468.014282226562	172.8350982666016	330.847137451172	-1554.2880859375	125.7824401855469	271.097381591797	-1530.460815429688	171.0081939697266	268.7273864746095	-1553.421264648438	111.9088973999023	69.05062866210946	-1473.363403320312	316.1212463378906	51.41036224365244	-1547.023315429688	239.9891052246094	27.00686073303233	-1626.583374023438	106.8844451904297	635.5223999023439	-968.081298828125	163.2515869140625	621.1356201171875	-913.1922607421875	140.8515777587891	589.0486450195314	-943.7001953125	146.4002838134766	346.0152893066407	-869.3477783203125	165.228271484375	272.2183227539063	-850.821044921875	129.1085662841797	287.2072143554688	-880.8728637695312	92.37772369384766	63.81194686889654	-965.1061401367188	285.6288757324219	48.38570022583013	-875.95947265625	199.9277038574219	38.18746948242192	-801.4271850585938	374.75244140625	1240.7890625	-1206.32861328125	364.0274658203125	1092.262573242188	-1204.199829101562	272.4338073730469	1329.07275390625	-1364.645141601562	196.7274322509766	1231.006713867188	-1482.822631835938	156.7144317626953	1181.662231445312	-1501.630615234375	197.7668914794922	1187.552001953125	-1531.60205078125	224.1421661376953	1138.067138671875	-1625.385375976562	302.7635803222656	1133.683715820312	-1633.468994140625	274.0033264160156	1174.328247070312	-1624.540161132812	343.6521606445312	1251.389038085938	-1617.6923828125	345.3504943847656	1244.941284179688	-1540.192993164062	281.0276794433594	1329.947875976562	-1051.678588867188	212.6697387695312	1235.974487304688	-934.1819458007811	205.8295288085938	1194.9736328125	-882.5050048828124	174.6344299316406	1183.35986328125	-922.7245483398436	251.4370574951172	1162.247436523438	-776.5154418945311	255.0018005371094	1240.457275390625	-790.8545532226561	292.7904663085938	1209.2890625	-779.4929809570311	333.9116516113281	1292.380981445312	-798.6326904296874	337.0314331054688	1284.562866210938	-876.1977539062499	
531	2.65	960.704833984375	36.20634460449231	-1933.53662109375	1063.175537109375	32.88710784912109	86.63739776611328	452.264404296875	1514.063598632812	-1199.747192382812	401.8518981933594	1537.663208007812	-1136.062133789062	406.0890197753906	1534.482788085938	-1270.972900390625	216.0585327148438	1364.222412109375	-1199.115112304688	129.6961212158203	1221.5302734375	-1202.9501953125	118.6917037963867	1191.951782226562	-1225.100708007812	110.5711212158203	1183.982666015625	-1176.209594726562	98.21835327148438	1130.319091796875	-1212.91064453125	82.51866912841797	1072.881958007812	-1213.101196289062	50.47712707519531	1056.756225585938	-1229.001953125	50.44482040405273	1053.912475585938	-1178.452758789062	24.00302886962891	999.6680908203126	-1207.904418945312	-3.499780416488647	900.3786010742189	-1231.627807617188	-2.608262777328491	897.9173583984376	-1180.120849609375	-14.71940898895264	839.1937866210939	-1208.3203125	128.4524078369141	637.6400146484376	-1453.125732421875	120.4283065795898	560.3394775390626	-1437.546875	154.6327514648438	583.8394775390626	-1466.368286132812	171.1329956054688	331.2763977050782	-1552.565673828125	124.4686050415039	271.1186828613282	-1529.022705078125	169.6685943603516	269.1373291015626	-1552.07373046875	111.8564605712891	69.04051208496102	-1473.385131835938	316.1007995605469	51.44789886474619	-1547.018798828125	239.9934997558594	27.03167152404795	-1626.568481445312	106.6069564819336	638.2723999023439	-969.3579711914062	162.9970550537109	622.862548828125	-914.7693481445312	140.0822143554688	591.2538452148439	-945.3822631835938	144.7914733886719	346.5001220703126	-871.228759765625	163.9730224609375	272.9394836425782	-852.146484375	127.8317184448242	287.5204772949219	-882.3816528320312	92.30416870117188	63.76460266113287	-965.08251953125	285.6345825195312	48.39695358276373	-875.9854125976562	199.9428863525391	38.2106323242188	-801.4563598632812	374.1369018554688	1245.749755859375	-1206.278198242188	364.3179321289062	1097.148559570312	-1204.204345703125	271.1794738769531	1333.491455078125	-1364.483764648438	195.8580017089844	1235.182983398438	-1482.68896484375	156.0651550292969	1185.658081054688	-1501.505615234375	197.0673980712891	1191.783813476562	-1531.498779296875	223.4951171875	1142.476684570312	-1625.380004882812	302.1242065429688	1138.470703125	-1633.610229492188	273.19189453125	1178.9736328125	-1624.593872070312	342.4953308105469	1256.345947265625	-1617.80126953125	344.3928833007812	1249.832641601562	-1540.319946289062	279.9024047851562	1334.271606445312	-1051.593383789062	211.9997863769531	1239.906616210938	-934.1223754882811	205.3609313964844	1198.833251953125	-882.4856567382811	174.2232818603516	1187.08740234375	-922.6883544921874	251.0884246826172	1166.288452148438	-776.4857177734374	254.2451324462891	1244.518676757812	-790.8048706054686	292.1863098144531	1213.5546875	-779.4142456054686	332.8625183105469	1296.874877929688	-798.4891967773436	336.0657958984375	1289.10009765625	-876.0535278320311	
532	2.655	960.7047119140625	36.20607757568371	-1933.53662109375	1063.175415039062	32.88704681396484	86.63685607910156	450.7295227050781	1518.692993164062	-1199.60888671875	400.2850036621094	1542.244506835938	-1135.920288085938	404.5516052246094	1539.0673828125	-1270.843872070312	214.8622589111328	1368.139770507812	-1198.999755859375	129.3379364013672	1224.853881835938	-1202.868896484375	118.5361557006836	1195.204956054688	-1225.02880859375	110.4477081298828	1187.16259765625	-1176.146118164062	98.44495391845703	1133.43505859375	-1212.870361328125	83.08055114746094	1075.999633789062	-1213.088745117188	51.19056701660156	1059.843383789062	-1228.964721679688	51.18909454345703	1056.988037109375	-1178.419799804688	24.96554756164551	1002.645935058594	-1207.872192382812	-2.194539308547974	903.8009033203126	-1231.620483398438	-1.301386117935181	901.3309326171876	-1180.107421875	-13.50637435913086	842.6267700195314	-1208.321166992188	127.9253387451172	639.9071044921876	-1451.892211914062	119.0973663330078	562.8078002929689	-1435.705688476562	153.5671081542969	585.7449340820314	-1464.71630859375	169.4207763671875	331.6800842285157	-1550.845458984375	123.1487731933594	271.1173706054689	-1527.588256835938	168.3203887939453	269.5260314941407	-1550.727783203125	111.8020629882812	69.02858734130868	-1473.40869140625	316.0797119140625	51.4865264892579	-1547.013671875	239.9976043701172	27.05500602722178	-1626.5546875	106.326904296875	640.9499511718751	-970.6338500976562	162.7254180908203	624.5202026367188	-916.3494262695312	139.3020935058594	593.3963623046876	-947.0628662109375	143.1641235351562	346.9590148925782	-873.1112670898438	162.6981048583984	273.6414794921876	-853.468017578125	126.5413665771484	287.8113098144532	-883.8925170898438	92.23317718505859	63.71523666381842	-965.0581665039062	285.6399536132812	48.40708541870123	-876.0093994140625	199.9575958251953	38.23244476318364	-801.4840087890625	373.5184020996094	1250.573364257812	-1206.223266601562	364.6016845703125	1101.90283203125	-1204.206665039062	269.9343872070312	1337.772827148438	-1364.325927734375	194.9935913085938	1239.217651367188	-1482.554809570312	155.4243774414062	1189.508178710938	-1501.371459960938	196.3715209960938	1195.868041992188	-1531.389526367188	222.8529968261719	1146.725952148438	-1625.359497070312	301.4881286621094	1143.09375	-1633.735473632812	272.3860778808594	1183.455810546875	-1624.635498046875	341.3474426269531	1261.134765625	-1617.903198242188	343.4349975585938	1254.56884765625	-1540.4375	278.7725524902344	1338.459838867188	-1051.505615234375	211.3248596191406	1243.696044921875	-934.0648193359374	204.8892059326172	1202.550048828125	-882.4672241210936	173.8120269775391	1190.670776367188	-922.6592407226561	250.7381286621094	1170.18505859375	-776.4617309570311	253.4825286865234	1248.433227539062	-790.7593383789061	291.5769653320312	1217.676513671875	-779.3386840820311	331.8034057617188	1301.224975585938	-798.3462524414061	335.0898132324219	1293.49755859375	-875.9108886718749	
